<?xml version="1.0" standalone="no"?>
<!DOCTYPE svg PUBLIC "-//W3C//DTD SVG 20010904//EN"
 "http://www.w3.org/TR/2001/REC-SVG-20010904/DTD/svg10.dtd">
<svg version="1.0" xmlns="http://www.w3.org/2000/svg"
 width="1280.000000pt" height="300.000000pt" viewBox="0 0 1280.000000 300.000000"
 preserveAspectRatio="xMidYMid meet">

<g transform="translate(0.000000,300.000000) scale(0.100000,-0.100000)"
fill="#000000" stroke="none">
<path d="M363 2605 c-65 -28 -85 -103 -49 -178 12 -24 145 -160 367 -374 192
-185 349 -340 349 -344 0 -5 -58 -9 -129 -9 -226 0 -369 -32 -505 -112 -132
-78 -222 -193 -277 -351 -125 -363 79 -752 449 -858 61 -17 104 -19 509 -19
l443 0 0 1054 c0 580 3 1061 6 1070 10 26 51 19 73 -13 19 -26 90 -175 281
-591 94 -203 114 -248 187 -405 39 -82 112 -240 163 -350 284 -612 323 -692
352 -722 44 -46 106 -67 169 -60 62 8 92 26 116 70 17 30 18 98 18 1117 l0
1085 -62 3 c-35 2 -64 2 -65 0 -2 -2 -5 -484 -8 -1073 -5 -1067 -5 -1070 -25
-1073 -12 -2 -30 7 -42 20 -19 20 -187 372 -458 958 -270 584 -501 1071 -522
1099 -14 18 -44 42 -67 52 -39 17 -76 19 -641 18 -488 0 -606 -2 -632 -14z
m1033 -111 c-3 -9 -6 -463 -6 -1010 l0 -994 -324 0 c-178 0 -348 4 -377 10
-131 24 -294 141 -368 264 -88 147 -94 341 -14 505 33 68 135 176 207 220 117
70 140 74 456 80 l285 6 3 32 c2 18 -1 39 -5 48 -5 8 -190 197 -411 418 -221
222 -402 411 -402 420 0 16 39 17 481 17 435 0 481 -2 475 -16z"/>
<path d="M6970 1834 c-289 -61 -507 -272 -581 -559 -24 -94 -29 -261 -10 -345
66 -288 255 -495 531 -581 107 -34 292 -34 400 0 209 65 377 206 471 396 51
104 70 178 76 299 10 171 -33 329 -128 471 -166 248 -478 380 -759 319z m333
-93 c108 -38 180 -83 263 -167 68 -67 90 -96 127 -175 60 -124 82 -230 74
-361 -11 -170 -69 -307 -184 -429 -130 -137 -266 -200 -449 -207 -131 -5 -229
17 -331 74 -137 76 -260 227 -309 377 -36 111 -45 291 -19 399 58 246 257 451
488 503 88 21 264 13 340 -14z"/>
<path d="M8365 1832 c-150 -52 -238 -149 -279 -309 -14 -52 -16 -145 -16 -618
l0 -556 43 3 42 3 5 585 5 585 29 62 c29 64 88 128 144 157 90 46 261 39 364
-16 110 -59 158 -142 158 -274 0 -140 -52 -229 -168 -286 l-67 -33 -190 -5
-190 -5 -3 -37 -3 -38 204 0 c229 0 278 -9 349 -63 24 -18 54 -53 68 -77 24
-44 25 -51 30 -300 l5 -255 45 0 45 0 3 180 c1 99 -2 217 -7 263 -17 141 -85
232 -206 277 l-59 22 42 22 c136 69 198 189 190 366 -3 74 -9 102 -31 147 -48
99 -143 170 -272 204 -72 20 -219 17 -280 -4z"/>
<path d="M10057 1835 c-168 -46 -280 -157 -327 -322 -19 -64 -20 -102 -20
-615 l0 -548 40 0 40 0 0 513 c0 283 5 543 10 580 14 92 50 165 110 221 95 89
225 125 376 106 145 -18 256 -94 310 -213 28 -59 29 -69 32 -234 l4 -173 -374
-2 -373 -3 -3 -37 -3 -38 376 -2 377 -3 1 -355 2 -355 40 0 40 0 3 539 c2 453
0 549 -13 598 -46 181 -160 296 -341 343 -71 18 -240 18 -307 0z"/>
<path d="M3147 1823 c-4 -3 -7 -19 -7 -35 l0 -28 210 0 210 0 0 -706 0 -705
43 3 42 3 3 703 2 702 211 0 210 0 -3 33 -3 32 -456 3 c-250 1 -459 -1 -462
-5z"/>
<path d="M5168 1823 l-28 -4 0 -507 c0 -286 -5 -537 -10 -577 -14 -91 -48
-163 -103 -219 -81 -81 -177 -116 -318 -116 -193 0 -325 84 -391 249 -22 55
-22 63 -26 614 l-3 557 -38 0 -38 0 -6 -207 c-3 -115 -5 -359 -3 -543 3 -365
6 -391 65 -508 32 -63 116 -149 177 -180 93 -46 144 -57 274 -56 134 1 195 16
285 68 55 33 128 112 159 175 54 106 56 133 54 717 -2 348 -7 538 -13 539 -5
1 -22 0 -37 -2z"/>
<path d="M5367 1823 c-4 -3 -7 -19 -7 -35 l0 -28 210 0 210 0 0 -706 0 -705
43 3 42 3 3 703 2 702 211 0 210 0 -3 33 -3 32 -456 3 c-250 1 -459 -1 -462
-5z"/>
<path d="M9295 1798 c-3 -18 -4 -350 -3 -738 l3 -705 43 -3 42 -3 -2 738 -3
738 -37 3 c-35 3 -37 1 -43 -30z"/>
<path d="M10996 1808 c-10 -39 -6 -1028 4 -1103 21 -142 102 -260 218 -317
l66 -33 198 -3 198 -4 0 35 0 35 -182 4 c-206 5 -229 11 -302 78 -50 46 -92
124 -106 199 -6 32 -10 270 -10 592 l0 539 -39 0 c-32 0 -40 -4 -45 -22z"/>
<path d="M12044 1815 c-122 -27 -203 -87 -248 -184 -27 -61 -29 -216 -3 -276
44 -99 115 -165 225 -210 33 -13 137 -47 232 -75 194 -57 273 -93 330 -150 66
-66 84 -112 84 -210 0 -129 -40 -191 -159 -247 l-60 -28 -315 -3 c-173 -1
-325 -5 -337 -7 -19 -4 -23 -12 -23 -41 l0 -36 338 4 c278 4 346 7 387 21 122
40 218 128 247 226 7 25 13 84 13 131 0 76 -4 93 -33 152 -54 110 -147 175
-333 233 -294 91 -339 108 -396 145 -98 64 -141 151 -129 262 7 74 25 115 66
155 63 62 91 66 433 71 l308 4 -3 36 -3 37 -280 2 c-202 1 -297 -2 -341 -12z"/>
</g>
</svg>
