 <svg version="1.0" xmlns="http://www.w3.org/2000/svg" width="200" height="50"
                    viewBox="0 0 1280 300">
                    <path
                        d="M36.3 39.5c-6.5 2.8-8.5 10.3-4.9 17.8 1.2 2.4 14.5 16 36.7 37.4 19.2 18.5 34.9 34 34.9 34.4 0 .5-5.8.9-12.9.9-22.6 0-36.9 3.2-50.5 11.2-13.2 7.8-22.2 19.3-27.7 35.1-12.5 36.3 7.9 75.2 44.9 85.8 6.1 1.7 10.4 1.9 50.9 1.9H152V158.6c0-58 .3-106.1.6-107 1-2.6 5.1-1.9 7.3 1.3 1.9 2.6 9 17.5 28.1 59.1 9.4 20.3 11.4 24.8 18.7 40.5 3.9 8.2 11.2 24 16.3 35 28.4 61.2 32.3 69.2 35.2 72.2 4.4 4.6 10.6 6.7 16.9 6 6.2-.8 9.2-2.6 11.6-7 1.7-3 1.8-9.8 1.8-111.7V38.5l-6.2-.3c-3.5-.2-6.4-.2-6.5 0-.2.2-.5 48.4-.8 107.3-.5 106.7-.5 107-2.5 107.3-1.2.2-3-.7-4.2-2-1.9-2-18.7-37.2-45.8-95.8-27-58.4-50.1-107.1-52.2-109.9-1.4-1.8-4.4-4.2-6.7-5.2-3.9-1.7-7.6-1.9-64.1-1.8-48.8 0-60.6.2-63.2 1.4m103.3 11.1c-.3.9-.6 46.3-.6 101V251h-32.4c-17.8 0-34.8-.4-37.7-1-13.1-2.4-29.4-14.1-36.8-26.4-8.8-14.7-9.4-34.1-1.4-50.5 3.3-6.8 13.5-17.6 20.7-22 11.7-7 14-7.4 45.6-8l28.5-.6.3-3.2c.2-1.8-.1-3.9-.5-4.8-.5-.8-19-19.7-41.1-41.8C62.1 70.5 44 51.6 44 50.7c0-1.6 3.9-1.7 48.1-1.7 43.5 0 48.1.2 47.5 1.6m557.4 66c-28.9 6.1-50.7 27.2-58.1 55.9-2.4 9.4-2.9 26.1-1 34.5 6.6 28.8 25.5 49.5 53.1 58.1 10.7 3.4 29.2 3.4 40 0 20.9-6.5 37.7-20.6 47.1-39.6 5.1-10.4 7-17.8 7.6-29.9 1-17.1-3.3-32.9-12.8-47.1-16.6-24.8-47.8-38-75.9-31.9m33.3 9.3c10.8 3.8 18 8.3 26.3 16.7 6.8 6.7 9 9.6 12.7 17.5 6 12.4 8.2 23 7.4 36.1-1.1 17-6.9 30.7-18.4 42.9-13 13.7-26.6 20-44.9 20.7-13.1.5-22.9-1.7-33.1-7.4-13.7-7.6-26-22.7-30.9-37.7-3.6-11.1-4.5-29.1-1.9-39.9 5.8-24.6 25.7-45.1 48.8-50.3 8.8-2.1 26.4-1.3 34 1.4m106.2-9.1c-15 5.2-23.8 14.9-27.9 30.9-1.4 5.2-1.6 14.5-1.6 61.8v55.6l4.3-.3 4.2-.3.5-58.5.5-58.5 2.9-6.2c2.9-6.4 8.8-12.8 14.4-15.7 9-4.6 26.1-3.9 36.4 1.6 11 5.9 15.8 14.2 15.8 27.4 0 14-5.2 22.9-16.8 28.6l-6.7 3.3-19 .5-19 .5-.3 3.7-.3 3.8h20.4c22.9 0 27.8.9 34.9 6.3 2.4 1.8 5.4 5.3 6.8 7.7 2.4 4.4 2.5 5.1 3 30l.5 25.5h9l.3-18c.1-9.9-.2-21.7-.7-26.3-1.7-14.1-8.5-23.2-20.6-27.7l-5.9-2.2 4.2-2.2c13.6-6.9 19.8-18.9 19-36.6-.3-7.4-.9-10.2-3.1-14.7-4.8-9.9-14.3-17-27.2-20.4-7.2-2-21.9-1.7-28 .4m169.2-.3c-16.8 4.6-28 15.7-32.7 32.2-1.9 6.4-2 10.2-2 61.5V265h8v-51.3c0-28.3.5-54.3 1-58 1.4-9.2 5-16.5 11-22.1 9.5-8.9 22.5-12.5 37.6-10.6 14.5 1.8 25.6 9.4 31 21.3 2.8 5.9 2.9 6.9 3.2 23.4l.4 17.3-37.4.2-37.3.3-.3 3.7-.3 3.8 37.6.2 37.7.3.1 35.5.2 35.5h8l.3-53.9c.2-45.3 0-54.9-1.3-59.8-4.6-18.1-16-29.6-34.1-34.3-7.1-1.8-24-1.8-30.7 0m-691 1.2c-.4.3-.7 1.9-.7 3.5v2.8h42v141.1l4.3-.3 4.2-.3.3-70.3.2-70.2h42.1l-.3-3.3-.3-3.2-45.6-.3c-25-.1-45.9.1-46.2.5m202.1 0-2.8.4v50.7c0 28.6-.5 53.7-1 57.7-1.4 9.1-4.8 16.3-10.3 21.9-8.1 8.1-17.7 11.6-31.8 11.6-19.3 0-32.5-8.4-39.1-24.9-2.2-5.5-2.2-6.3-2.6-61.4l-.3-55.7h-7.6l-.6 20.7c-.3 11.5-.5 35.9-.3 54.3.3 36.5.6 39.1 6.5 50.8 3.2 6.3 11.6 14.9 17.7 18 9.3 4.6 14.4 5.7 27.4 5.6 13.4-.1 19.5-1.6 28.5-6.8 5.5-3.3 12.8-11.2 15.9-17.5 5.4-10.6 5.6-13.3 5.4-71.7-.2-34.8-.7-53.8-1.3-53.9-.5-.1-2.2 0-3.7.2m19.9 0c-.4.3-.7 1.9-.7 3.5v2.8h42v141.1l4.3-.3 4.2-.3.3-70.3.2-70.2h42.1l-.3-3.3-.3-3.2-45.6-.3c-25-.1-45.9.1-46.2.5m392.8 2.5c-.3 1.8-.4 35-.3 73.8l.3 70.5 4.3.3 4.2.3-.2-73.8-.3-73.8-3.7-.3c-3.5-.3-3.7-.1-4.3 3m170.1-1c-1 3.9-.6 102.8.4 110.3 2.1 14.2 10.2 26 21.8 31.7l6.6 3.3 19.8.3 19.8.4v-7l-18.2-.4c-20.6-.5-22.9-1.1-30.2-7.8-5-4.6-9.2-12.4-10.6-19.9-.6-3.2-1-27-1-59.2V117h-3.9c-3.2 0-4 .4-4.5 2.2m104.8-.7c-12.2 2.7-20.3 8.7-24.8 18.4-2.7 6.1-2.9 21.6-.3 27.6 4.4 9.9 11.5 16.5 22.5 21 3.3 1.3 13.7 4.7 23.2 7.5 19.4 5.7 27.3 9.3 33 15 6.6 6.6 8.4 11.2 8.4 21 0 12.9-4 19.1-15.9 24.7l-6 2.8-31.5.3c-17.3.1-32.5.5-33.7.7-1.9.4-2.3 1.2-2.3 4.1v3.6l33.8-.4c27.8-.4 34.6-.7 38.7-2.1 12.2-4 21.8-12.8 24.7-22.6.7-2.5 1.3-8.4 1.3-13.1 0-7.6-.4-9.3-3.3-15.2-5.4-11-14.7-17.5-33.3-23.3-29.4-9.1-33.9-10.8-39.6-14.5-9.8-6.4-14.1-15.1-12.9-26.2.7-7.4 2.5-11.5 6.6-15.5 6.3-6.2 9.1-6.6 43.3-7.1l30.8-.4-.3-3.6-.3-3.7-28-.2c-20.2-.1-29.7.2-34.1 1.2" />
                </svg>